#Comment line ignore any data following # character 
#Hierarchical Translation and Rotation (.htr) file 
[Header]	
#Header keywords are followed by a single value 
FileType HTR		#Single word string
DataType HTRS		#Translation followed by rotation and scale data
FileVersion 1		#integer
NumSegments 84		#integer
NumFrames 2		#integer
DataFrameRate 30		#integer, data frame rate in this file
EulerRotationOrder ZYX
CalibrationUnits mm
RotationUnits Degrees
GlobalAxisofGravity Y
BoneLengthAxis Y
ScaleFactor 1.00
[SegmentNames&Hierarchy]
#CHILD	PARENT
MASTER GLOBAL
root MASTER
chest root
L_mid_tent01 root
R_mid_tent01 root
spine01 root
Bip01_Neck chest
L_humerus chest
R_humerus chest
weapon_bone chest
Bip01_Head Bip01_Neck
eye_left_bone Bip01_Head
eye_right_bone Bip01_Head
L_forearm L_humerus
L_front_hand L_forearm
L_weapon_bone L_forearm
L_front_hand01_01 L_front_hand
L_front_hand02_01 L_front_hand
L_front_hand03_01 L_front_hand
L_front_hand01_02 L_front_hand01_01
L_front_hand02_02 L_front_hand02_01
L_front_hand03_02 L_front_hand03_01
R_forearm R_humerus
R_front_hand R_forearm
R_weapon_bone R_forearm
R_front_hand01_01 R_front_hand
R_front_hand02_01 R_front_hand
R_front_hand03_01 R_front_hand
R_front_hand01_02 R_front_hand01_01
R_front_hand02_02 R_front_hand02_01
R_front_hand03_02 R_front_hand03_01
null_rope01_connect L_mid_tent01
Rope1_Seg01 null_rope01_connect
Rope1_Seg02 Rope1_Seg01
Rope1_Seg03 Rope1_Seg02
Rope1_Seg04 Rope1_Seg03
Rope1_Seg05 Rope1_Seg04
Rope1_Seg06 Rope1_Seg05
Rope1_Seg07 Rope1_Seg06
Rope1_Seg09 Rope1_Seg07
L_mid_hand01 Rope1_Seg09
L_mid_hand02 Rope1_Seg09
L_mid_hand03 Rope1_Seg09
null_rope02_connect R_mid_tent01
Rope2_Seg01 null_rope02_connect
Rope2_Seg02 Rope2_Seg01
Rope2_Seg03 Rope2_Seg02
Rope2_Seg04 Rope2_Seg03
Rope2_Seg05 Rope2_Seg04
Rope2_Seg06 Rope2_Seg05
Rope2_Seg07 Rope2_Seg06
Rope2_Seg09 Rope2_Seg07
R_mid_hand01 Rope2_Seg09
R_mid_hand02 Rope2_Seg09
R_mid_hand03 Rope2_Seg09
spine02 spine01
spine03 spine02
pelvis spine03
null_rope03_connect pelvis
null_rope04_connect pelvis
Rope3_Seg01 null_rope03_connect
Rope3_Seg02 Rope3_Seg01
Rope3_Seg03 Rope3_Seg02
Rope3_Seg04 Rope3_Seg03
Rope3_Seg05 Rope3_Seg04
Rope3_Seg06 Rope3_Seg05
Rope3_Seg07 Rope3_Seg06
Rope3_Seg08 Rope3_Seg07
Rope3_Seg09 Rope3_Seg08
R_rear_hand01 Rope3_Seg09
R_rear_hand02 Rope3_Seg09
R_rear_hand03 Rope3_Seg09
Rope4_Seg01 null_rope04_connect
Rope4_Seg02 Rope4_Seg01
Rope4_Seg03 Rope4_Seg02
Rope4_Seg04 Rope4_Seg03
Rope4_Seg05 Rope4_Seg04
Rope4_Seg06 Rope4_Seg05
Rope4_Seg07 Rope4_Seg06
Rope4_Seg08 Rope4_Seg07
Rope4_Seg09 Rope4_Seg08
L_rear_hand01 Rope4_Seg09
L_rear_hand02 Rope4_Seg09
L_rear_hand03 Rope4_Seg09
[BasePosition]
#SegmentName Tx, Ty, Tz, Rx, Ry, Rz, BoneLength
MASTER 0.000000 0.000000 0.000000 -90.000000 0.000000 0.000000 10.000000 
root 0.000000 0.000000 0.000000 0.000000 0.000000 0.000000 10.000000 
chest 0.000000 0.000000 0.000000 0.000000 0.000000 0.000000 10.000000 
L_mid_tent01 0.000000 0.000000 0.000000 0.000000 0.000000 0.000000 10.000000 
R_mid_tent01 0.000000 0.000000 0.000000 0.000000 0.000000 0.000000 10.000000 
spine01 0.000000 0.000000 0.000000 0.000000 0.000000 0.000000 10.000000 
Bip01_Neck 0.000000 0.000000 0.000000 0.000000 0.000000 0.000000 10.000000 
L_humerus 0.000000 0.000000 0.000000 0.000000 0.000000 0.000000 10.000000 
R_humerus 0.000000 0.000000 0.000000 0.000000 0.000000 0.000000 10.000000 
weapon_bone 0.000000 0.000000 0.000000 0.000000 0.000000 0.000000 10.000000 
Bip01_Head 0.000000 0.000000 0.000000 0.000000 0.000000 0.000000 10.000000 
eye_left_bone 0.000000 0.000000 0.000000 0.000000 0.000000 0.000000 10.000000 
eye_right_bone 0.000000 0.000000 0.000000 0.000000 0.000000 0.000000 10.000000 
L_forearm 0.000000 0.000000 0.000000 0.000000 0.000000 0.000000 10.000000 
L_front_hand 0.000000 0.000000 0.000000 0.000000 0.000000 0.000000 10.000000 
L_weapon_bone 0.000000 0.000000 0.000000 0.000000 0.000000 0.000000 10.000000 
L_front_hand01_01 0.000000 0.000000 0.000000 0.000000 0.000000 0.000000 10.000000 
L_front_hand02_01 0.000000 0.000000 0.000000 0.000000 0.000000 0.000000 10.000000 
L_front_hand03_01 0.000000 0.000000 0.000000 0.000000 0.000000 0.000000 10.000000 
L_front_hand01_02 0.000000 0.000000 0.000000 0.000000 0.000000 0.000000 10.000000 
L_front_hand02_02 0.000000 0.000000 0.000000 0.000000 0.000000 0.000000 10.000000 
L_front_hand03_02 0.000000 0.000000 0.000000 0.000000 0.000000 0.000000 10.000000 
R_forearm 0.000000 0.000000 0.000000 0.000000 0.000000 0.000000 10.000000 
R_front_hand 0.000000 0.000000 0.000000 0.000000 0.000000 0.000000 10.000000 
R_weapon_bone 0.000000 0.000000 0.000000 0.000000 0.000000 0.000000 10.000000 
R_front_hand01_01 0.000000 0.000000 0.000000 0.000000 0.000000 0.000000 10.000000 
R_front_hand02_01 0.000000 0.000000 0.000000 0.000000 0.000000 0.000000 10.000000 
R_front_hand03_01 0.000000 0.000000 0.000000 0.000000 0.000000 0.000000 10.000000 
R_front_hand01_02 0.000000 0.000000 0.000000 0.000000 0.000000 0.000000 10.000000 
R_front_hand02_02 0.000000 0.000000 0.000000 0.000000 0.000000 0.000000 10.000000 
R_front_hand03_02 0.000000 0.000000 0.000000 0.000000 0.000000 0.000000 10.000000 
null_rope01_connect 0.000000 0.000000 0.000000 0.000000 0.000000 0.000000 10.000000 
Rope1_Seg01 0.000000 0.000000 0.000000 0.000000 0.000000 0.000000 10.000000 
Rope1_Seg02 0.000000 0.000000 0.000000 0.000000 0.000000 0.000000 10.000000 
Rope1_Seg03 0.000000 0.000000 0.000000 0.000000 0.000000 0.000000 10.000000 
Rope1_Seg04 0.000000 0.000000 0.000000 0.000000 0.000000 0.000000 10.000000 
Rope1_Seg05 0.000000 0.000000 0.000000 0.000000 0.000000 0.000000 10.000000 
Rope1_Seg06 0.000000 0.000000 0.000000 0.000000 0.000000 0.000000 10.000000 
Rope1_Seg07 0.000000 0.000000 0.000000 0.000000 0.000000 0.000000 10.000000 
Rope1_Seg09 0.000000 0.000000 0.000000 0.000000 0.000000 0.000000 10.000000 
L_mid_hand01 0.000000 0.000000 0.000000 0.000000 0.000000 0.000000 10.000000 
L_mid_hand02 0.000000 0.000000 0.000000 0.000000 0.000000 0.000000 10.000000 
L_mid_hand03 0.000000 0.000000 0.000000 0.000000 0.000000 0.000000 10.000000 
null_rope02_connect 0.000000 0.000000 0.000000 0.000000 0.000000 0.000000 10.000000 
Rope2_Seg01 0.000000 0.000000 0.000000 0.000000 0.000000 0.000000 10.000000 
Rope2_Seg02 0.000000 0.000000 0.000000 0.000000 0.000000 0.000000 10.000000 
Rope2_Seg03 0.000000 0.000000 0.000000 0.000000 0.000000 0.000000 10.000000 
Rope2_Seg04 0.000000 0.000000 0.000000 0.000000 0.000000 0.000000 10.000000 
Rope2_Seg05 0.000000 0.000000 0.000000 0.000000 0.000000 0.000000 10.000000 
Rope2_Seg06 0.000000 0.000000 0.000000 0.000000 0.000000 0.000000 10.000000 
Rope2_Seg07 0.000000 0.000000 0.000000 0.000000 0.000000 0.000000 10.000000 
Rope2_Seg09 0.000000 0.000000 0.000000 0.000000 0.000000 0.000000 10.000000 
R_mid_hand01 0.000000 0.000000 0.000000 0.000000 0.000000 0.000000 10.000000 
R_mid_hand02 0.000000 0.000000 0.000000 0.000000 0.000000 0.000000 10.000000 
R_mid_hand03 0.000000 0.000000 0.000000 0.000000 0.000000 0.000000 10.000000 
spine02 0.000000 0.000000 0.000000 0.000000 0.000000 0.000000 10.000000 
spine03 0.000000 0.000000 0.000000 0.000000 0.000000 0.000000 10.000000 
pelvis 0.000000 0.000000 0.000000 0.000000 0.000000 0.000000 10.000000 
null_rope03_connect 0.000000 0.000000 0.000000 0.000000 0.000000 0.000000 10.000000 
null_rope04_connect 0.000000 0.000000 0.000000 0.000000 0.000000 0.000000 10.000000 
Rope3_Seg01 0.000000 0.000000 0.000000 0.000000 0.000000 0.000000 10.000000 
Rope3_Seg02 0.000000 0.000000 0.000000 0.000000 0.000000 0.000000 10.000000 
Rope3_Seg03 0.000000 0.000000 0.000000 0.000000 0.000000 0.000000 10.000000 
Rope3_Seg04 0.000000 0.000000 0.000000 0.000000 0.000000 0.000000 10.000000 
Rope3_Seg05 0.000000 0.000000 0.000000 0.000000 0.000000 0.000000 10.000000 
Rope3_Seg06 0.000000 0.000000 0.000000 0.000000 0.000000 0.000000 10.000000 
Rope3_Seg07 0.000000 0.000000 0.000000 0.000000 0.000000 0.000000 10.000000 
Rope3_Seg08 0.000000 0.000000 0.000000 0.000000 0.000000 0.000000 10.000000 
Rope3_Seg09 0.000000 0.000000 0.000000 0.000000 0.000000 0.000000 10.000000 
R_rear_hand01 0.000000 0.000000 0.000000 0.000000 0.000000 0.000000 10.000000 
R_rear_hand02 0.000000 0.000000 0.000000 0.000000 0.000000 0.000000 10.000000 
R_rear_hand03 0.000000 0.000000 0.000000 0.000000 0.000000 0.000000 10.000000 
Rope4_Seg01 0.000000 0.000000 0.000000 0.000000 0.000000 0.000000 10.000000 
Rope4_Seg02 0.000000 0.000000 0.000000 0.000000 0.000000 0.000000 10.000000 
Rope4_Seg03 0.000000 0.000000 0.000000 0.000000 0.000000 0.000000 10.000000 
Rope4_Seg04 0.000000 0.000000 0.000000 0.000000 0.000000 0.000000 10.000000 
Rope4_Seg05 0.000000 0.000000 0.000000 0.000000 0.000000 0.000000 10.000000 
Rope4_Seg06 0.000000 0.000000 0.000000 0.000000 0.000000 0.000000 10.000000 
Rope4_Seg07 0.000000 0.000000 0.000000 0.000000 0.000000 0.000000 10.000000 
Rope4_Seg08 0.000000 0.000000 0.000000 0.000000 0.000000 0.000000 10.000000 
Rope4_Seg09 0.000000 0.000000 0.000000 0.000000 0.000000 0.000000 10.000000 
L_rear_hand01 0.000000 0.000000 0.000000 0.000000 0.000000 0.000000 10.000000 
L_rear_hand02 0.000000 0.000000 0.000000 0.000000 0.000000 0.000000 10.000000 
L_rear_hand03 0.000000 0.000000 0.000000 0.000000 0.000000 0.000000 10.000000 
#Beginning of Data. Separated by tabs
#Fr	Tx	Ty	Tz	Rx	Ry	Rz	SF
[MASTER]
15 -2765.660645 2151.868652 1715.896606 0.001660 0.001660 0.001660 3901.758545
16 -2822.214355 2288.689697 1712.620483 0.001660 0.001660 0.001660 4016.971924
[root]
15 43.988338 -51.398621 304.501648 -160.051239 -14.589283 -71.356834 311.926361
16 31.845398 -78.721771 345.338593 -160.842987 -14.340543 -71.342224 355.626190
[chest]
15 -84.512650 -34.090519 0.000000 -29.020334 -17.108351 175.926300 91.129311
16 -84.512650 -34.090519 0.000000 -31.828531 -18.765888 176.783600 91.129311
[L_mid_tent01]
15 27.299032 22.179068 -249.918732 -11.933413 15.098729 35.005299 252.381699
16 27.299028 22.179066 -249.918732 -11.860168 14.882796 35.126499 252.381699
[R_mid_tent01]
15 23.228794 24.509907 226.238495 173.508698 -6.777074 55.622055 228.744751
16 23.228794 24.509907 226.238495 174.112350 -8.940792 49.066261 228.744751
[spine01]
15 -0.361383 -0.195265 0.000000 0.001957 0.001296 22.977192 0.410763
16 -0.361383 -0.195265 0.000000 0.001957 0.001296 22.998638 0.410763
[Bip01_Neck]
15 165.484543 71.581718 0.000119 176.643677 -1.657967 43.431911 180.302734
16 165.484543 71.581718 0.000119 176.643677 -1.657967 43.431911 180.302734
[L_humerus]
15 -13.983130 -135.272980 -120.471481 121.740845 80.698730 -147.520905 181.680161
16 -13.983130 -135.272980 -120.471481 138.211868 78.224884 -130.763168 181.680161
[R_humerus]
15 -13.983309 -135.273102 125.287651 -172.439240 -66.725060 -92.491844 184.909012
16 -13.983309 -135.273102 125.287651 -175.404434 -49.537907 -89.037956 184.909012
[weapon_bone]
15 235.964890 -300.705902 0.000000 0.000000 -89.951546 -128.212341 382.234833
16 235.964890 -300.705902 0.000000 0.000000 -89.951546 -128.212341 382.234833
[Bip01_Head]
15 213.661026 185.112152 19.567871 4.835003 -1.325640 -43.897614 283.373352
16 213.649689 185.143784 19.159241 -5.518947 -1.166957 -43.898571 283.357513
[eye_left_bone]
15 -24.626970 125.451866 -64.772606 0.000000 -90.000000 -99.840431 143.318359
16 -24.626970 125.451866 -64.772606 0.000000 -90.000000 -99.840431 143.318359
[eye_right_bone]
15 -24.626970 125.451866 64.327362 0.000000 -89.965736 80.156380 143.117676
16 -24.626970 125.451866 64.327362 0.000000 -89.980217 80.156387 143.117676
[L_forearm]
15 322.776093 0.000000 -0.000119 0.000135 -0.002343 -96.611412 322.776093
16 322.776093 0.000000 -0.000119 0.000139 -0.002343 -96.796608 322.776093
[L_front_hand]
15 241.149185 -0.042021 -3.300071 174.496582 -1.834776 -27.424725 241.171753
16 241.149185 -0.042021 -3.300071 173.946381 -1.836799 -27.422596 241.171753
[L_weapon_bone]
15 156.183838 0.000000 0.000000 0.000014 0.000007 0.000001 156.183838
16 156.183838 0.000000 0.000000 0.000014 0.000007 0.000001 156.183838
[L_front_hand01_01]
15 86.095154 20.947098 -0.655860 -0.289670 -0.523794 66.735390 88.609184
16 86.095154 20.947098 -0.655860 -0.273295 -0.533469 64.985298 88.609184
[L_front_hand02_01]
15 86.935165 -11.437475 24.513514 142.722214 -55.345612 -47.569828 91.046425
16 86.935165 -11.437475 24.513514 140.772385 -54.262844 -45.183468 91.046425
[L_front_hand03_01]
15 86.637497 -14.123976 -20.424902 -143.016556 53.569096 -49.561108 90.126129
16 86.637497 -14.123976 -20.424902 -141.183044 52.494118 -47.265888 90.126129
[L_front_hand01_02]
15 71.020905 -0.000179 0.000030 0.000316 -0.002326 -105.495743 71.020905
16 71.020905 -0.000179 0.000030 0.000315 -0.002326 -105.448143 71.020905
[L_front_hand02_02]
15 71.020927 -0.000119 0.000060 0.000316 -0.002326 -105.495743 71.020927
16 71.020927 -0.000119 0.000060 0.000315 -0.002326 -105.448143 71.020927
[L_front_hand03_02]
15 71.020905 -0.000060 0.000060 0.000316 -0.002326 -105.495743 71.020905
16 71.020905 -0.000060 0.000060 0.000315 -0.002326 -105.448143 71.020905
[R_forearm]
15 322.776428 -0.000060 0.000030 0.212745 0.017723 -95.152374 322.776428
16 322.776428 -0.000060 0.000030 0.212717 0.018065 -95.336349 322.776428
[R_front_hand]
15 238.847015 -0.006795 2.210259 -3.921046 -10.644549 -26.312435 238.857239
16 238.847015 -0.006795 2.210259 -4.116621 -10.643638 -26.312304 238.857239
[R_weapon_bone]
15 155.664093 0.002503 -0.000030 0.003487 0.001180 -90.988930 155.664078
16 155.664093 0.002503 -0.000030 0.003487 0.001180 -90.988914 155.664078
[R_front_hand01_01]
15 87.624611 14.231146 22.918642 -140.102493 -53.853168 44.460335 91.683487
16 87.624611 14.231146 22.918642 -138.890259 -53.085796 42.950848 91.683487
[R_front_hand02_01]
15 89.356956 14.367283 -19.491137 140.872437 52.278004 47.106758 92.579636
16 89.356956 14.367283 -19.491137 139.720169 51.522045 45.641415 92.579636
[R_front_hand03_01]
15 87.286232 -22.307278 -0.143439 0.074609 -0.448192 -64.587509 90.091743
16 87.286232 -22.307278 -0.143439 0.065790 -0.451534 -63.409447 90.091743
[R_front_hand01_02]
15 71.020905 0.000060 0.000119 0.002323 -0.000334 106.381714 71.020905
16 71.020905 0.000060 0.000119 0.002323 -0.000334 106.381714 71.020905
[R_front_hand02_02]
15 71.020844 -0.000030 -0.000119 0.002323 -0.000334 106.381714 71.020836
16 71.020844 -0.000030 -0.000119 0.002323 -0.000334 106.381714 71.020836
[R_front_hand03_02]
15 71.020905 0.000000 0.000030 0.002323 -0.000334 106.381714 71.020905
16 71.020905 0.000000 0.000030 0.002323 -0.000334 106.381714 71.020905
[null_rope01_connect]
15 328.732483 0.000000 -0.000238 -161.647125 -7.607383 -109.894417 328.732483
16 328.732483 0.000000 -0.000238 -161.859222 -6.903161 -109.865837 328.732483
[Rope1_Seg01]
15 -0.000010 -0.000028 0.000153 67.587608 -54.114433 38.897884 0.000156
16 -0.000010 -0.000028 0.000153 54.241905 -61.898453 53.363262 0.000155
[Rope1_Seg02]
15 139.999863 -0.000179 0.000000 -1.702155 10.583059 5.330110 139.999863
16 139.999863 -0.000179 0.000000 -0.462864 8.387864 3.881141 139.999863
[Rope1_Seg03]
15 139.999924 0.000060 -0.000060 -3.744611 19.267096 10.858624 139.999924
16 139.999924 0.000060 -0.000060 -1.406732 15.027085 7.314786 139.999924
[Rope1_Seg04]
15 139.999924 -0.000060 -0.000119 -6.361948 29.237965 19.784248 139.999924
16 139.999924 -0.000060 -0.000119 -4.486919 30.410290 15.530149 139.999924
[Rope1_Seg05]
15 139.999832 0.000119 -0.000060 -3.551224 8.287110 11.612437 139.999832
16 139.999832 0.000119 -0.000060 -4.429602 13.559266 12.772542 139.999832
[Rope1_Seg06]
15 139.999954 0.000119 -0.000060 -0.850400 -4.526719 8.978530 139.999954
16 139.999954 0.000119 -0.000060 -0.990116 -4.884387 9.718502 139.999954
[Rope1_Seg07]
15 139.999985 0.000060 0.000000 -0.014953 -0.721036 16.823380 139.999985
16 139.999985 0.000060 0.000000 -0.011766 0.278460 16.977976 139.999985
[Rope1_Seg09]
15 121.602913 0.000119 -0.000089 -89.793175 -1.359789 0.847147 121.602913
16 121.602913 0.000119 -0.000089 -89.793175 -1.359789 0.847147 121.602913
[L_mid_hand01]
15 103.859421 1.038730 8.195221 109.301483 -41.408253 -13.576799 104.187431
16 103.859421 1.038730 8.195221 109.056198 -40.604698 -13.201401 104.187431
[L_mid_hand02]
15 105.572853 -4.139662 -10.864139 -147.153671 31.943630 -38.737034 106.211075
16 105.572853 -4.139662 -10.864139 -146.713593 31.476528 -37.902313 106.211075
[L_mid_hand03]
15 104.641464 17.579376 -3.913581 -14.087292 12.528420 44.741467 106.179977
16 104.641464 17.579376 -3.913581 -14.267233 12.322316 43.898396 106.179977
[null_rope02_connect]
15 328.732849 0.000179 -0.000119 -2.787378 21.884325 121.647217 328.732849
16 328.732849 0.000179 -0.000119 -4.204753 21.514776 114.649277 328.732849
[Rope2_Seg01]
15 0.000048 0.000163 0.000039 115.210693 72.444855 54.645126 0.000174
16 0.000049 0.000166 0.000042 111.448990 68.424286 52.179836 0.000178
[Rope2_Seg02]
15 139.999741 -0.000060 -0.000119 -0.861327 18.273390 -9.781260 139.999756
16 139.999741 -0.000060 -0.000119 0.431342 18.556398 -13.121608 139.999756
[Rope2_Seg03]
15 140.000107 0.000030 0.000000 2.426034 0.000689 -2.991477 140.000107
16 140.000107 0.000030 0.000000 4.049424 1.453867 -5.338572 140.000107
[Rope2_Seg04]
15 139.999802 0.000000 -0.000060 0.191435 2.625707 -1.433566 139.999802
16 139.999802 0.000000 -0.000060 1.057612 3.365815 -2.634496 139.999802
[Rope2_Seg05]
15 139.999985 -0.000060 0.000119 -3.264319 10.433340 -2.254032 139.999985
16 139.999985 -0.000060 0.000119 -3.254864 13.063973 -4.291127 139.999985
[Rope2_Seg06]
15 139.999893 -0.000030 -0.000119 -75.341461 33.448940 -4.666235 139.999893
16 139.999893 -0.000030 -0.000119 -136.851349 33.915737 -8.641653 139.999893
[Rope2_Seg07]
15 139.999893 0.000060 -0.000060 -67.367142 11.158026 26.987865 139.999893
16 139.999893 0.000060 -0.000060 -26.554464 -11.251914 19.690523 139.999893
[Rope2_Seg09]
15 121.338966 0.000089 -0.000060 33.793236 -1.359788 -0.847141 121.338966
16 121.338966 0.000089 -0.000060 33.793236 -1.359788 -0.847141 121.338966
[R_mid_hand01]
15 104.680779 11.144459 -10.335981 -31.399162 37.614391 47.725441 105.778534
16 104.680779 11.144459 -10.335981 -33.085678 36.191685 44.913235 105.778534
[R_mid_hand02]
15 104.070427 2.443552 8.231699 66.339699 -51.820030 19.540783 104.424065
16 104.070427 2.443552 8.231699 67.611237 -49.370296 17.897308 104.424065
[R_mid_hand03]
15 106.028137 -11.221827 -5.996406 -172.206848 13.802570 -57.446243 106.788818
16 106.028137 -11.221827 -5.996406 -171.571182 13.427420 -54.737041 106.788818
[spine02]
15 129.756927 0.001550 0.000119 -0.944950 -3.948945 5.608781 129.756927
16 129.756927 0.001550 0.000119 -0.926159 -3.951521 5.350521 129.756927
[spine03]
15 78.614006 0.081748 -4.898984 1.091678 4.133694 4.944673 78.766541
16 78.614006 0.081745 -4.898983 1.102085 4.132027 5.096122 78.766541
[pelvis]
15 169.435242 0.051022 0.000000 0.017085 -0.190467 -9.256874 169.435257
16 169.435242 0.051022 0.000000 0.016549 -0.190515 -8.934390 169.435257
[null_rope03_connect]
15 -1.257226 -2.466202 137.391083 -172.734604 -23.300753 -94.492111 137.418976
16 -1.257226 -2.466202 137.391083 -172.690872 -22.496834 -94.828239 137.418976
[null_rope04_connect]
15 -1.259640 -2.480268 -137.844437 -172.734604 -23.300753 -94.492111 137.872513
16 -1.259640 -2.480268 -137.844437 -172.690872 -22.496834 -94.828239 137.872513
[Rope3_Seg01]
15 0.000000 0.000000 0.000000 -4.272496 -13.022563 -24.836348 0.000000
16 0.000000 0.000000 0.000000 3.951981 -11.790916 -36.250298 0.000000
[Rope3_Seg02]
15 139.999924 -0.000119 0.000060 25.629608 26.187145 -7.016778 139.999924
16 139.999924 -0.000119 0.000060 18.220205 34.698032 -23.227877 139.999924
[Rope3_Seg03]
15 139.999924 -0.000119 0.000119 9.863295 43.532658 -61.586212 139.999924
16 139.999924 -0.000119 0.000119 -4.020240 31.046598 -56.517395 139.999924
[Rope3_Seg04]
15 139.999924 0.000119 0.000000 -0.276300 2.723555 -18.904259 139.999924
16 139.999924 0.000119 0.000000 -1.676597 4.685633 -11.083577 139.999924
[Rope3_Seg05]
15 139.999924 -0.000238 0.000060 -1.695543 3.637732 -10.389222 139.999924
16 139.999924 -0.000238 0.000060 -2.343371 3.580398 -10.603318 139.999924
[Rope3_Seg06]
15 139.999893 -0.000119 -0.000060 -9.060214 10.179065 -22.421585 139.999893
16 139.999893 -0.000119 -0.000060 -10.556688 7.893835 -23.662931 139.999893
[Rope3_Seg07]
15 139.999771 0.000060 -0.000119 -22.716515 17.327761 -29.488491 139.999771
16 139.999771 0.000060 -0.000119 -22.408508 13.134034 -25.985079 139.999771
[Rope3_Seg08]
15 139.999985 -0.000060 0.000000 -9.152185 10.126662 -8.846602 139.999985
16 139.999985 -0.000060 0.000000 -10.288385 8.916790 -8.139179 139.999985
[Rope3_Seg09]
15 90.185997 -0.000179 -0.000060 89.793228 -1.359877 -0.847183 90.185997
16 90.185997 -0.000179 -0.000060 89.793228 -1.359877 -0.847183 90.185997
[R_rear_hand01]
15 103.366196 -6.073594 -10.757982 -177.762299 -17.271214 -57.797363 104.101845
16 103.366196 -6.073594 -10.757982 -176.575333 -17.742334 -55.492535 104.101845
[R_rear_hand02]
15 100.509819 12.039542 -7.992327 -26.694445 29.195726 47.151855 101.543350
16 100.509819 12.039542 -7.992327 -28.108641 27.848612 44.189137 101.543350
[R_rear_hand03]
15 101.539970 5.215704 5.435467 81.113556 -50.109848 10.702383 101.819031
16 101.539970 5.215704 5.435467 81.609138 -47.214466 10.038949 101.819031
[Rope4_Seg01]
15 -0.000019 -0.000078 -0.000153 -95.176147 -6.883430 -43.623184 0.000172
16 -0.000019 -0.000083 -0.000153 -80.184563 -2.742131 -33.064644 0.000175
[Rope4_Seg02]
15 139.999985 0.000060 0.000119 -63.761150 -1.502009 -39.877754 139.999985
16 139.999985 0.000060 0.000119 -89.539032 -11.929360 -37.590469 139.999985
[Rope4_Seg03]
15 139.999924 0.000000 -0.000238 -36.440094 42.528957 -30.649910 139.999924
16 139.999924 0.000000 -0.000238 -32.303425 49.817791 -20.365923 139.999924
[Rope4_Seg04]
15 139.999985 0.000000 0.000119 -0.998612 13.879817 -1.136301 139.999985
16 139.999985 0.000000 0.000119 -0.381624 13.641106 1.584856 139.999985
[Rope4_Seg05]
15 139.999802 -0.000060 -0.000119 0.398715 11.369121 0.493640 139.999802
16 139.999802 -0.000060 -0.000119 0.607674 12.742614 2.707299 139.999802
[Rope4_Seg06]
15 139.999924 0.000000 0.000060 3.183456 21.535191 1.770631 139.999924
16 139.999924 0.000000 0.000060 4.842932 27.701826 6.959741 139.999924
[Rope4_Seg07]
15 139.999802 0.000000 0.000000 7.416806 20.056259 0.323566 139.999802
16 139.999802 0.000000 0.000000 11.079179 23.903322 4.232808 139.999802
[Rope4_Seg08]
15 139.999924 0.000000 0.000119 6.346485 10.856079 -1.340188 139.999924
16 139.999924 0.000000 0.000119 11.813880 11.037752 -0.201504 139.999924
[Rope4_Seg09]
15 90.185791 0.000060 0.000060 -135.617828 2.228885 0.850567 90.185791
16 90.185791 0.000060 0.000060 -135.617828 2.228885 0.850567 90.185791
[L_rear_hand01]
15 101.696655 -8.392275 -7.654577 -31.194277 -24.256094 142.819397 102.329041
16 101.696655 -8.392275 -7.654577 -30.608620 -25.023813 141.417831 102.329041
[L_rear_hand02]
15 102.726799 -1.568258 5.773216 82.562164 40.032185 171.334641 102.900848
16 102.726799 -1.568258 5.773216 82.398407 41.509426 171.081650 102.900848
[L_rear_hand03]
15 104.552910 9.721220 -10.420293 -164.408707 -19.357925 -140.691956 105.519653
16 104.552910 9.721220 -10.420293 -164.917755 -19.749290 -139.167572 105.519653
